<svg width="24" height="24" viewBox="0 0 24 24" fill="none" xmlns="http://www.w3.org/2000/svg">
<path d="M22.8959 0H0.953995C0.426316 0 0 0.429 0 0.96V23.04C0 23.571 0.426316 24 0.953995 24H22.8959C23.4236 24 23.8499 23.571 23.8499 23.04V0.96C23.8499 0.429 23.4236 0 22.8959 0ZM20.1412 7.005H18.2362C16.7426 7.005 16.4534 7.719 16.4534 8.769V11.082H20.019L19.5539 14.703H16.4534V24H12.7358V14.706H9.6264V11.082H12.7358V8.412C12.7358 5.313 14.617 3.624 17.3657 3.624C18.6834 3.624 19.8133 3.723 20.1442 3.768V7.005H20.1412Z" fill="#482712"/>
</svg>
