<svg width="25" height="24" viewBox="0 0 25 24" fill="none" xmlns="http://www.w3.org/2000/svg">
<path d="M12.6512 5.84719C9.2675 5.84719 6.53669 8.59519 6.53669 12.0002C6.53669 15.4052 9.2675 18.1532 12.6512 18.1532C16.0349 18.1532 18.7657 15.4052 18.7657 12.0002C18.7657 8.59519 16.0349 5.84719 12.6512 5.84719ZM12.6512 15.9992C10.463 15.9992 8.67722 14.2022 8.67722 12.0002C8.67722 9.79819 10.463 8.00119 12.6512 8.00119C14.8394 8.00119 16.6252 9.79819 16.6252 12.0002C16.6252 14.2022 14.8394 15.9992 12.6512 15.9992ZM19.0161 4.16119C18.2261 4.16119 17.5881 4.80319 17.5881 5.59819C17.5881 6.39319 18.2261 7.03519 19.0161 7.03519C19.8062 7.03519 20.4441 6.39619 20.4441 5.59819C20.4444 5.40942 20.4076 5.22245 20.3359 5.048C20.2642 4.87354 20.1591 4.71504 20.0264 4.58155C19.8938 4.44807 19.7362 4.34223 19.5629 4.2701C19.3895 4.19796 19.2037 4.16096 19.0161 4.16119ZM24.5702 12.0002C24.5702 10.3442 24.5851 8.70319 24.4927 7.05019C24.4002 5.13019 23.965 3.42619 22.5698 2.02219C21.1716 0.615193 19.4812 0.180193 17.5732 0.0871931C15.9276 -0.00580693 14.2968 0.00919311 12.6542 0.00919311C11.0085 0.00919311 9.3778 -0.00580693 7.73515 0.0871931C5.82716 0.180193 4.13382 0.618193 2.7386 2.02219C1.3404 3.42919 0.908122 5.13019 0.815703 7.05019C0.723285 8.70619 0.738191 10.3472 0.738191 12.0002C0.738191 13.6532 0.723285 15.2972 0.815703 16.9502C0.908122 18.8702 1.34338 20.5742 2.7386 21.9782C4.1368 23.3852 5.82716 23.8202 7.73515 23.9132C9.38079 24.0062 11.0115 23.9912 12.6542 23.9912C14.2998 23.9912 15.9306 24.0062 17.5732 23.9132C19.4812 23.8202 21.1745 23.3822 22.5698 21.9782C23.968 20.5712 24.4002 18.8702 24.4927 16.9502C24.5881 15.2972 24.5702 13.6562 24.5702 12.0002ZM21.9467 19.0742C21.7291 19.6202 21.4667 20.0282 21.0464 20.4482C20.626 20.8712 20.2235 21.1352 19.6809 21.3542C18.1128 21.9812 14.3893 21.8402 12.6512 21.8402C10.9131 21.8402 7.1866 21.9812 5.61847 21.3572C5.07589 21.1382 4.67044 20.8742 4.25307 20.4512C3.83271 20.0282 3.57036 19.6232 3.35273 19.0772C2.73264 17.4962 2.87275 13.7492 2.87275 12.0002C2.87275 10.2512 2.73264 6.50119 3.35273 4.92319C3.57036 4.37719 3.83271 3.96919 4.25307 3.54919C4.67342 3.12919 5.07589 2.86219 5.61847 2.64319C7.1866 2.01919 10.9131 2.16019 12.6512 2.16019C14.3893 2.16019 18.1158 2.01919 19.6839 2.64319C20.2265 2.86219 20.632 3.12619 21.0493 3.54919C21.4697 3.97219 21.732 4.37719 21.9497 4.92319C22.5698 6.50119 22.4296 10.2512 22.4296 12.0002C22.4296 13.7492 22.5698 17.4962 21.9467 19.0742Z" fill="#482712"/>
</svg>
