<svg width="25" height="20" viewBox="0 0 25 20" fill="none" xmlns="http://www.w3.org/2000/svg">
<path d="M24.2997 2.46548C23.4236 2.85141 22.4701 3.12917 21.4881 3.23735C22.5077 2.61879 23.2712 1.64156 23.6354 0.489007C22.6787 1.07022 21.6305 1.47778 20.5375 1.6936C20.0807 1.19488 19.5282 0.797581 18.9144 0.526453C18.3007 0.255325 17.6388 0.116179 16.9701 0.117688C14.2644 0.117688 12.0884 2.3573 12.0884 5.10564C12.0884 5.49158 12.1342 5.87752 12.2087 6.24884C8.15736 6.03248 4.54409 4.05601 2.14193 1.0299C1.70423 1.79335 1.47486 2.66261 1.47768 3.54727C1.47768 5.27814 2.33948 6.80435 3.65366 7.70195C2.87919 7.6708 2.12287 7.45342 1.44619 7.06749V7.12889C1.44619 9.5527 3.12398 11.5613 5.36008 12.0233C4.94023 12.1347 4.50832 12.1916 4.07454 12.1929C3.75673 12.1929 3.4561 12.1607 3.15261 12.1168C3.77105 14.0933 5.57195 15.5289 7.71644 15.5757C6.03864 16.9177 3.93711 17.7071 1.65519 17.7071C1.24577 17.7071 0.867834 17.6925 0.475586 17.6457C2.64011 19.0637 5.20834 19.8824 7.97412 19.8824C16.9529 19.8824 21.866 12.2864 21.866 5.69332C21.866 5.47696 21.866 5.2606 21.8517 5.04424C22.8023 4.33377 23.6354 3.45371 24.2997 2.46548Z" fill="#482712"/>
</svg>
