<svg width="43" height="32" viewBox="0 0 43 32" fill="none" xmlns="http://www.w3.org/2000/svg">
<path d="M0.8 5.49101C0.8 2.90024 2.90024 0.8 5.49101 0.8H37.5089C40.0997 0.8 42.2 2.90024 42.2 5.49101V26.509C42.2 29.0998 40.0997 31.2 37.5089 31.2H5.49101C2.90024 31.2 0.8 29.0998 0.8 26.509V5.49101Z" fill="white" stroke="#482712" stroke-width="1.6"/>
<path d="M0 11H14" stroke="#482712" stroke-width="1.6"/>
<path d="M13 31V31C13 30.6124 13.0871 30.2297 13.2549 29.8802L13.5 29.37C13.8291 28.6846 14 27.9341 14 27.1739V26.2466L14 25.1267C14 24.49 13.8892 23.8581 13.6726 23.2593V23.2593C13.2379 22.0576 13.2407 20.7288 13.6721 19.5259V19.5259C13.8876 18.9251 14 18.2854 14 17.6472V16.5294V16.5294C14 15.1482 13.8047 13.7739 13.4199 12.4474L13 11" stroke="#482712" stroke-width="1.6"/>
<path d="M12 1L12.9989 2.69954C13.6544 3.81481 14 5.08495 14 6.37859V6.37859V6.37859C14 7.68493 13.7633 8.98047 13.3015 10.2024L13 11" stroke="#482712" stroke-width="1.6"/>
<path d="M0 21H13" stroke="#482712" stroke-width="1.6"/>
<path d="M14 26L15.8496 26.5086C17.0354 26.8347 18.2597 27 19.4895 27L22 27" stroke="#482712" stroke-width="1.6"/>
<path d="M14 5L15.8496 4.49137C17.0354 4.16527 18.2597 4 19.4895 4L22 4" stroke="#482712" stroke-width="1.6"/>
<path d="M29 5L27.1504 4.49137C25.9646 4.16527 24.7403 4 23.5105 4L21 4" stroke="#482712" stroke-width="1.6"/>
<path d="M43 11H29" stroke="#482712" stroke-width="1.6"/>
<path d="M30 31V31C30 30.6124 29.9129 30.2297 29.7451 29.8802L29.5 29.37C29.1709 28.6846 29 27.9341 29 27.1739V26.2466V25.1267C29 24.49 29.1108 23.8581 29.3274 23.2593V23.2593C29.7621 22.0576 29.7593 20.7288 29.3279 19.5259V19.5259C29.1124 18.9251 29 18.2854 29 17.6472V16.5294V16.5294C29 15.1482 29.1953 13.7739 29.5801 12.4474L30 11" stroke="#482712" stroke-width="1.6"/>
<path d="M31 1L30.0011 2.69954C29.3456 3.81481 29 5.08495 29 6.37859V6.37859V6.37859C29 7.68493 29.2367 8.98047 29.6985 10.2024L30 11" stroke="#482712" stroke-width="1.6"/>
<path d="M43 21H30" stroke="#482712" stroke-width="1.6"/>
<path d="M29 26L27.1504 26.5086C25.9646 26.8347 24.7403 27 23.5105 27L21 27" stroke="#482712" stroke-width="1.6"/>
</svg>
