<svg width="40" height="32" viewBox="0 0 40 32" fill="none" xmlns="http://www.w3.org/2000/svg">
<path d="M24.392 32V27.852H30.036C31.0787 27.852 31.8947 27.546 32.484 26.934C33.0733 26.322 33.368 25.574 33.368 24.69C33.368 24.078 33.232 23.534 32.96 23.058C32.688 22.582 32.3027 22.208 31.804 21.936C31.328 21.664 30.7387 21.528 30.036 21.528H24.392V17.482H29.594C30.478 17.482 31.192 17.2667 31.736 16.836C32.28 16.3827 32.552 15.7027 32.552 14.796C32.552 13.912 32.28 13.2547 31.736 12.824C31.192 12.3707 30.478 12.144 29.594 12.144H24.392V7.996H30.614C32.1553 7.996 33.4587 8.27933 34.524 8.846C35.612 9.41267 36.4393 10.172 37.006 11.124C37.5727 12.076 37.856 13.13 37.856 14.286C37.856 15.7593 37.38 17.006 36.428 18.026C35.476 19.046 34.0707 19.7487 32.212 20.134L32.348 18.332C34.3653 18.7173 35.918 19.4993 37.006 20.678C38.1167 21.8567 38.672 23.3073 38.672 25.03C38.672 26.3447 38.3433 27.5347 37.686 28.6C37.0513 29.6427 36.122 30.47 34.898 31.082C33.6967 31.694 32.246 32 30.546 32H24.392ZM20.312 32V7.996H25.582V32H20.312Z" fill="#C58E97"/>
<path d="M13.634 25.374C11.8887 25.374 10.2453 25.0567 8.704 24.422C7.18533 23.7873 5.85933 22.9147 4.726 21.804C3.59267 20.6707 2.69733 19.356 2.04 17.86C1.40533 16.3413 1.088 14.7093 1.088 12.964C1.088 11.2187 1.41667 9.598 2.074 8.102C2.73133 6.606 3.638 5.30267 4.794 4.192C5.97267 3.05866 7.344 2.186 8.908 1.574C10.472 0.939333 12.1493 0.622 13.94 0.622C16.0027 0.622 17.8727 0.996 19.55 1.744C21.25 2.492 22.6553 3.52333 23.766 4.838L20.128 8.476C19.3573 7.47867 18.4507 6.73067 17.408 6.232C16.3653 5.73333 15.1867 5.484 13.872 5.484C12.4667 5.484 11.2087 5.80133 10.098 6.436C8.98733 7.048 8.11467 7.92067 7.48 9.054C6.868 10.1647 6.562 11.468 6.562 12.964C6.562 14.46 6.868 15.7747 7.48 16.908C8.092 18.0413 8.93067 18.9253 9.996 19.56C11.0613 20.1947 12.2853 20.512 13.668 20.512C15.0733 20.512 16.2633 20.2513 17.238 19.73C18.2353 19.186 18.9947 18.4153 19.516 17.418C20.06 16.398 20.332 15.1627 20.332 13.712L23.868 16.092L13.158 15.922V11.4H25.772V12.182C25.772 15.0607 25.2507 17.486 24.208 19.458C23.188 21.4073 21.76 22.8807 19.924 23.878C18.1107 24.8753 16.014 25.374 13.634 25.374Z" fill="#482712"/>
</svg>
