<svg width="40" height="50" viewBox="0 0 40 50" fill="none" xmlns="http://www.w3.org/2000/svg">
<path d="M24.392 41V36.852H30.036C31.0787 36.852 31.8947 36.546 32.484 35.934C33.0733 35.322 33.368 34.574 33.368 33.69C33.368 33.078 33.232 32.534 32.96 32.058C32.688 31.582 32.3027 31.208 31.804 30.936C31.328 30.664 30.7387 30.528 30.036 30.528H24.392V26.482H29.594C30.478 26.482 31.192 26.2667 31.736 25.836C32.28 25.3827 32.552 24.7027 32.552 23.796C32.552 22.912 32.28 22.2547 31.736 21.824C31.192 21.3707 30.478 21.144 29.594 21.144H24.392V16.996H30.614C32.1553 16.996 33.4587 17.2793 34.524 17.846C35.612 18.4127 36.4393 19.172 37.006 20.124C37.5727 21.076 37.856 22.13 37.856 23.286C37.856 24.7593 37.38 26.006 36.428 27.026C35.476 28.046 34.0707 28.7487 32.212 29.134L32.348 27.332C34.3653 27.7173 35.918 28.4993 37.006 29.678C38.1167 30.8567 38.672 32.3073 38.672 34.03C38.672 35.3447 38.3433 36.5347 37.686 37.6C37.0513 38.6427 36.122 39.47 34.898 40.082C33.6967 40.694 32.246 41 30.546 41H24.392ZM20.312 41V16.996H25.582V41H20.312Z" fill="#C58E97"/>
<path d="M13.634 34.374C11.8887 34.374 10.2453 34.0567 8.704 33.422C7.18533 32.7873 5.85933 31.9147 4.726 30.804C3.59267 29.6707 2.69733 28.356 2.04 26.86C1.40533 25.3413 1.088 23.7093 1.088 21.964C1.088 20.2187 1.41667 18.598 2.074 17.102C2.73133 15.606 3.638 14.3027 4.794 13.192C5.97267 12.0587 7.344 11.186 8.908 10.574C10.472 9.93933 12.1493 9.622 13.94 9.622C16.0027 9.622 17.8727 9.996 19.55 10.744C21.25 11.492 22.6553 12.5233 23.766 13.838L20.128 17.476C19.3573 16.4787 18.4507 15.7307 17.408 15.232C16.3653 14.7333 15.1867 14.484 13.872 14.484C12.4667 14.484 11.2087 14.8013 10.098 15.436C8.98733 16.048 8.11467 16.9207 7.48 18.054C6.868 19.1647 6.562 20.468 6.562 21.964C6.562 23.46 6.868 24.7747 7.48 25.908C8.092 27.0413 8.93067 27.9253 9.996 28.56C11.0613 29.1947 12.2853 29.512 13.668 29.512C15.0733 29.512 16.2633 29.2513 17.238 28.73C18.2353 28.186 18.9947 27.4153 19.516 26.418C20.06 25.398 20.332 24.1627 20.332 22.712L23.868 25.092L13.158 24.922V20.4H25.772V21.182C25.772 24.0607 25.2507 26.486 24.208 28.458C23.188 30.4073 21.76 31.8807 19.924 32.878C18.1107 33.8753 16.014 34.374 13.634 34.374Z" fill="#482712"/>
</svg>
