<svg width="62" height="63" viewBox="0 0 62 63" fill="none" xmlns="http://www.w3.org/2000/svg">
<path d="M44.319 44.5654L44.3189 44.5655C43.7326 45.5612 42.5972 46.7102 41.333 47.8261C40.0427 48.965 38.5243 50.1495 37.0821 51.2175C35.6377 52.2872 34.2579 53.2488 33.2399 53.9425C32.7306 54.2896 32.3111 54.5702 32.0185 54.7643C31.8721 54.8613 31.7575 54.9368 31.6791 54.9882L31.5893 55.047L31.5659 55.0622L31.5597 55.0662L31.558 55.0673L31.5576 55.0676C31.5574 55.0677 31.5573 55.0678 31.0128 54.229M44.319 44.5654L17.6815 44.5663C18.2651 45.5552 19.4012 46.7008 20.6664 47.8146C21.9582 48.9519 23.4801 50.1371 24.9262 51.2068C26.3745 52.2782 27.7586 53.2425 28.7799 53.9384C29.2909 54.2866 29.7118 54.5682 30.0055 54.763C30.1523 54.8604 30.2674 54.9362 30.346 54.9878L30.4361 55.0468L30.4596 55.0621L30.4658 55.0661L30.4674 55.0672L30.4679 55.0675C30.468 55.0676 30.4681 55.0676 31.0128 54.229M44.319 44.5654C45.3809 42.7621 46.1643 40.7216 46.0361 38.0346L46.0361 38.0343C45.8102 33.3213 42.3303 29.1999 37.798 29.1999C35.6236 29.1999 33.7327 30.0995 32.4273 30.9448C31.8503 31.3185 31.372 31.6917 31.0151 31.9945C30.6698 31.6912 30.2074 31.3203 29.6443 30.9492C28.3484 30.0952 26.4574 29.1999 24.2026 29.1999C19.6703 29.1999 16.1904 33.3213 15.9645 38.0343L15.9645 38.0344M44.319 44.5654L15.9645 38.0344M31.0128 54.229L31.5573 55.0678L31.0127 55.4213L30.4681 55.0676L31.0128 54.229ZM15.9645 38.0344C15.836 40.7212 16.6213 42.7696 17.6815 44.5662L15.9645 38.0344ZM50.8661 28.3525V28.7933L51.1914 29.0906L59.4239 36.6162H51.8661H50.8661V37.6162V62H10.6416V37.6162V36.6162H9.64165H2.5546L30.9498 10.3626L42.9187 21.454L44.5984 23.0106V20.7205V17.3646H50.8661V28.3525Z" fill="#F0A8B4" stroke="#482712" stroke-width="2"/>
<mask id="path-2-inside-1_239_1121" fill="white">
<path d="M48.5061 11C48.5061 11 53.3405 7.89482 54.2634 6.34375C54.7235 5.57082 55.0482 4.7246 54.9941 3.60829C54.8986 1.63205 53.4362 0 51.6449 0C49.8825 0 48.5 1.45062 48.5 1.45062C48.5 1.45062 47.1965 0 45.355 0C43.564 0 42.1016 1.63205 42.0058 3.60829C41.952 4.7246 42.2775 5.57411 42.7365 6.34375C43.6536 7.88138 48.5061 11 48.5061 11Z"/>
</mask>
<path d="M48.5061 11C48.5061 11 53.3405 7.89482 54.2634 6.34375C54.7235 5.57082 55.0482 4.7246 54.9941 3.60829C54.8986 1.63205 53.4362 0 51.6449 0C49.8825 0 48.5 1.45062 48.5 1.45062C48.5 1.45062 47.1965 0 45.355 0C43.564 0 42.1016 1.63205 42.0058 3.60829C41.952 4.7246 42.2775 5.57411 42.7365 6.34375C43.6536 7.88138 48.5061 11 48.5061 11Z" fill="#F0A8B4"/>
<path d="M48.5061 11L47.8032 12.0936L48.5059 12.5452L49.2086 12.0938L48.5061 11ZM54.2634 6.34375L53.1464 5.67879L53.1463 5.67897L54.2634 6.34375ZM54.9941 3.60829L53.6956 3.67102L53.6956 3.67124L54.9941 3.60829ZM48.5 1.45062L47.533 2.31949L48.4719 3.3644L49.441 2.3475L48.5 1.45062ZM42.0058 3.60829L40.7073 3.54539L40.7073 3.54567L42.0058 3.60829ZM42.7365 6.34375L41.62 7.00961L41.62 7.00969L42.7365 6.34375ZM48.5061 11C49.2086 12.0938 49.2087 12.0937 49.2088 12.0937C49.2089 12.0936 49.209 12.0935 49.2092 12.0935C49.2094 12.0933 49.2097 12.0931 49.2101 12.0929C49.2109 12.0923 49.212 12.0916 49.2134 12.0908C49.2161 12.089 49.22 12.0865 49.225 12.0833C49.235 12.0768 49.2495 12.0674 49.2682 12.0553C49.3056 12.031 49.3599 11.9957 49.4289 11.9504C49.5668 11.8599 49.7638 11.7295 50.0027 11.5684C50.4796 11.2468 51.1274 10.8001 51.807 10.3021C52.4837 9.80627 53.2074 9.24824 53.8297 8.70475C54.4176 8.19122 55.0347 7.58982 55.3806 7.00853L53.1463 5.67897C53.0307 5.87321 52.6974 6.24161 52.1193 6.74654C51.5755 7.22151 50.9175 7.73061 50.2702 8.20492C49.6259 8.67709 49.0074 9.10364 48.5491 9.41274C48.3203 9.56701 48.1324 9.69134 48.0023 9.7767C47.9373 9.81936 47.8868 9.85224 47.853 9.87421C47.836 9.8852 47.8233 9.89345 47.8149 9.89883C47.8108 9.90152 47.8077 9.90349 47.8058 9.90472C47.8048 9.90534 47.8042 9.90577 47.8038 9.90602C47.8036 9.90614 47.8035 9.90622 47.8034 9.90625C47.8034 9.90626 47.8034 9.90625 47.8034 9.90626C47.8035 9.90623 47.8035 9.9062 48.5061 11ZM55.3805 7.0087C55.9294 6.08662 56.3625 4.98793 56.2926 3.54535L53.6956 3.67124C53.7339 4.46127 53.5177 5.05501 53.1464 5.67879L55.3805 7.0087ZM56.2926 3.54557C56.1716 1.04166 54.2839 -1.3 51.6449 -1.3V1.3C52.5885 1.3 53.6257 2.22244 53.6956 3.67102L56.2926 3.54557ZM51.6449 -1.3C50.4166 -1.3 49.3833 -0.800594 48.7101 -0.369242C48.3643 -0.147602 48.0865 0.0733527 47.8928 0.240943C47.7954 0.325234 47.7177 0.397395 47.6617 0.451274C47.6336 0.478254 47.6109 0.500769 47.5937 0.518066C47.5851 0.526718 47.5779 0.534077 47.5721 0.540049C47.5692 0.543036 47.5666 0.545677 47.5644 0.547961C47.5633 0.549104 47.5623 0.550157 47.5614 0.551119C47.5609 0.5516 47.5605 0.552059 47.5601 0.552495C47.5599 0.552713 47.5596 0.553023 47.5595 0.553131C47.5592 0.553435 47.5589 0.553734 48.5 1.45062C49.441 2.3475 49.4408 2.34779 49.4405 2.34807C49.4404 2.34816 49.4401 2.34844 49.44 2.34861C49.4396 2.34896 49.4393 2.34928 49.439 2.34959C49.4385 2.3502 49.4379 2.35073 49.4375 2.35117C49.4367 2.35206 49.4361 2.35262 49.4359 2.35287C49.4354 2.35335 49.4362 2.35256 49.4381 2.35059C49.4421 2.34664 49.4507 2.33799 49.4639 2.3253C49.4904 2.29985 49.5345 2.25868 49.5942 2.20698C49.7149 2.10258 49.8929 1.96088 50.1129 1.81986C50.5717 1.5259 51.1108 1.3 51.6449 1.3V-1.3ZM48.5 1.45062C49.467 0.581746 49.4666 0.581408 49.4663 0.581065C49.4662 0.580943 49.4659 0.580594 49.4657 0.58035C49.4653 0.579862 49.4648 0.579351 49.4643 0.578817C49.4633 0.57775 49.4623 0.576592 49.4612 0.575344C49.4589 0.572849 49.4563 0.569995 49.4534 0.566795C49.4475 0.560396 49.4402 0.552604 49.4317 0.543515C49.4146 0.525345 49.3922 0.501936 49.3646 0.474046C49.3095 0.418349 49.2333 0.344286 49.1376 0.258064C48.9473 0.0865859 48.6735 -0.138375 48.3282 -0.363572C47.6497 -0.806118 46.6163 -1.3 45.355 -1.3V1.3C45.9352 1.3 46.4743 1.53143 46.9079 1.81419C47.1187 1.95165 47.2859 2.08934 47.3974 2.18985C47.4527 2.23963 47.4928 2.2789 47.5162 2.30253C47.5278 2.3143 47.5352 2.32206 47.5381 2.32514C47.5395 2.32668 47.5398 2.32703 47.539 2.32612C47.5386 2.32566 47.5379 2.32489 47.5369 2.32379C47.5364 2.32324 47.5358 2.32261 47.5351 2.32189C47.5348 2.32153 47.5345 2.32116 47.5341 2.32076C47.5339 2.32056 47.5337 2.32024 47.5336 2.32014C47.5333 2.31982 47.533 2.31949 48.5 1.45062ZM45.355 -1.3C42.7162 -1.3 40.8286 1.04172 40.7073 3.54539L43.3043 3.6712C43.3745 2.22237 44.4118 1.3 45.355 1.3V-1.3ZM40.7073 3.54567C40.6378 4.98764 41.0713 6.08968 41.62 7.00961L43.853 5.67788C43.4836 5.05854 43.2662 4.46156 43.3043 3.67092L40.7073 3.54567ZM41.62 7.00969C41.9651 7.58821 42.5833 8.18825 43.171 8.70024C43.7939 9.24275 44.519 9.80096 45.1974 10.2975C45.8787 10.7962 46.5284 11.244 47.0068 11.5666C47.2464 11.7281 47.444 11.8589 47.5824 11.9497C47.6516 11.9952 47.706 12.0306 47.7435 12.055C47.7623 12.0672 47.7768 12.0766 47.7868 12.0831C47.7919 12.0863 47.7958 12.0888 47.7985 12.0906C47.7999 12.0915 47.8009 12.0922 47.8017 12.0927C47.8021 12.0929 47.8024 12.0931 47.8027 12.0933C47.8028 12.0934 47.8029 12.0934 47.803 12.0935C47.8031 12.0936 47.8032 12.0936 48.5061 11C49.2089 9.90639 49.209 9.90642 49.209 9.90645C49.209 9.90644 49.209 9.90645 49.209 9.90643C49.209 9.9064 49.2088 9.90633 49.2086 9.9062C49.2082 9.90595 49.2076 9.90551 49.2066 9.90489C49.2047 9.90365 49.2016 9.90166 49.1974 9.89896C49.189 9.89355 49.1762 9.88525 49.1592 9.87421C49.1252 9.85213 49.0745 9.81909 49.0092 9.77624C48.8786 9.69051 48.69 9.56566 48.4603 9.41082C48.0002 9.10058 47.3795 8.67264 46.733 8.19947C46.0837 7.72415 45.4237 7.2144 44.8788 6.73971C44.2988 6.2345 43.9665 5.8681 43.853 5.6778L41.62 7.00969Z" fill="#482712" mask="url(#path-2-inside-1_239_1121)"/>
</svg>
