<svg width="38" height="60" viewBox="0 0 38 60" fill="none" xmlns="http://www.w3.org/2000/svg">
<path d="M24.6212 3.44956C24.0267 3.48356 23.4804 3.42879 22.9036 3.21549C22.3502 3.01087 21.8216 2.67924 21.2358 2.24543C20.3326 1.5777 19.8241 1.24774 19.6409 1.16473L19.6398 1.16424C19.2428 0.98378 18.9532 0.972931 18.7232 1.03267C18.3853 1.1257 18.0718 1.28144 16.7673 2.24552C16.1815 2.67929 15.653 3.01088 15.0996 3.21549C14.5228 3.42878 13.9765 3.48355 13.3821 3.44957C13.0932 3.43373 12.4819 3.37498 12.0104 3.31787C11.1418 3.21592 10.6341 3.22565 10.3053 3.29909C10.0352 3.35943 9.87282 3.46401 9.69744 3.6766L9.69348 3.68135L35.6648 25.8449L34.6724 25.9677C34.6723 25.967 34.6722 25.9664 34.6721 25.9657C34.6128 25.4853 34.5622 24.7924 34.5619 24.3761C34.5598 24.0904 34.5586 23.8471 34.5882 23.6242C34.6219 23.3704 34.6908 23.1717 34.759 22.9788M24.6212 3.44956C24.91 3.43373 25.5205 3.37505 25.9919 3.31798C27.4611 3.14833 27.844 3.29163 28.0989 3.47935C28.3497 3.66585 28.5333 3.86131 29.1663 5.30667L29.1672 5.30853C29.6733 6.45795 29.9861 7.03395 30.5604 7.58269L30.5701 7.59195L30.5701 7.59188C31.1019 8.08647 31.6249 8.37009 32.6809 8.82876L32.6818 8.82917C33.6871 9.26459 33.8679 9.36645 34.1941 9.59733L34.1969 9.59938C34.4947 9.80855 34.6131 9.98388 34.6815 10.2385C34.7688 10.5634 34.7879 11.0793 34.6811 12.006C34.533 13.2372 34.4961 13.8467 34.611 14.4682C34.7733 15.3625 35.1304 15.942 36.0406 17.1618C36.8463 18.2452 36.9726 18.6235 36.996 18.931C37.021 19.2623 36.9829 19.5848 35.8968 21.0391L35.8957 21.0405C35.311 21.8265 34.9743 22.3645 34.759 22.9788M24.6212 3.44956C24.6217 3.44954 24.6222 3.4495 24.6227 3.44948L24.5654 2.45112L24.6198 3.44964C24.6203 3.44961 24.6208 3.44959 24.6212 3.44956ZM34.759 22.9788C34.7588 22.9794 34.7586 22.9801 34.7583 22.9807L35.7021 23.311L34.7594 22.9776C34.7593 22.978 34.7592 22.9784 34.759 22.9788ZM32.8823 29.093C32.8826 29.0929 32.8829 29.0928 32.8832 29.0926L33.2801 30.0098L32.8807 29.0937C32.8812 29.0935 32.8818 29.0932 32.8823 29.093ZM32.8823 29.093C31.4556 29.7104 30.7754 30.0808 30.1854 30.8205M32.8823 29.093L35.0523 29.0006C34.6783 29.3465 34.2668 29.5803 33.2803 30.0104C31.8543 30.6275 31.3868 30.9173 30.966 31.4456M30.1854 30.8205C30.1862 30.8195 30.187 30.8186 30.1878 30.8176L30.966 31.4456M30.1854 30.8205C30.005 31.0451 29.799 31.4159 29.6141 31.776C29.413 32.1677 29.189 32.6429 28.9741 33.1354L28.9739 33.1358C28.6897 33.7879 28.4556 34.1625 28.2474 34.3878C28.0669 34.5831 27.8929 34.6813 27.6565 34.7392M30.1854 30.8205C30.1849 30.8212 30.1843 30.8219 30.1838 30.8226L30.966 31.4456M30.966 31.4456C30.7509 31.7121 30.3068 32.5816 29.8907 33.5354M27.8802 35.7139C28.7405 35.5082 29.2875 34.9192 29.8907 33.5354M27.8802 35.7139C27.5342 35.7934 26.5758 35.7747 25.6875 35.6672M27.8802 35.7139L27.6477 34.7413C27.6506 34.7406 27.6536 34.7399 27.6565 34.7392M27.8802 35.7139L27.6563 34.7393C27.6572 34.7391 27.6577 34.739 27.6577 34.739C27.6577 34.739 27.6573 34.7391 27.6565 34.7392M29.8907 33.5354L2.33842 25.8449C2.12335 27.6168 2.26829 28.3695 2.9509 29.0006C3.32493 29.3465 3.73637 29.5803 4.72288 30.0104M29.8907 33.5354L27.6565 34.7392M25.6875 35.6672C25.2526 35.6111 24.6495 35.569 24.355 35.569C23.331 35.569 22.9196 35.7513 21.4001 36.8827C20.2172 37.7616 19.7123 38 19.0016 38C18.2722 38 17.8328 37.7896 16.5003 36.8079C15.3641 35.9757 15.0462 35.7887 14.4665 35.6391C14.0784 35.5409 13.2742 35.5503 12.3158 35.6672M25.6875 35.6672L25.8076 34.6744C25.8089 34.6746 25.8101 34.6747 25.8113 34.6749C25.8127 34.675 25.8141 34.6752 25.8154 34.6754L25.6875 35.6672ZM12.3158 35.6672C11.3105 35.7887 10.4596 35.7981 10.0482 35.6905C9.22998 35.4802 8.70634 34.8958 8.11256 33.5354C7.69645 32.5816 7.25228 31.7121 7.03721 31.4456M12.3158 35.6672L12.1947 34.6745C12.1948 34.6745 12.195 34.6745 12.1951 34.6745C12.1953 34.6744 12.1955 34.6744 12.1957 34.6744L12.3158 35.6672ZM7.03721 31.4456C6.61642 30.9173 6.14888 30.6275 4.72288 30.0104M7.03721 31.4456L7.81538 30.8176C7.81616 30.8185 7.81694 30.8195 7.81772 30.8205M7.03721 31.4456L7.8194 30.8226C7.81884 30.8219 7.81828 30.8212 7.81772 30.8205M4.72288 30.0104L5.12004 29.0926C5.12045 29.0928 5.12085 29.093 5.12126 29.0932M4.72288 30.0104L5.12253 29.0937C5.12211 29.0935 5.12169 29.0933 5.12126 29.0932M5.12126 29.0932C4.14919 28.6693 3.87196 28.4903 3.62991 28.2665L3.62977 28.2663C3.43579 28.087 3.34169 27.9282 3.28976 27.6603C3.22632 27.3329 3.22599 26.8316 3.33113 25.9654L3.33115 25.9653C3.39029 25.4775 3.44128 24.7945 3.44128 24.3723C3.44128 24.0883 3.44038 23.8515 3.41387 23.6368C3.38354 23.3911 3.32393 23.201 3.25807 23.0059L9.02912 33.1354C8.81419 32.6429 8.5902 32.1677 8.38908 31.776C8.20415 31.4159 7.99812 31.045 7.81772 30.8205M5.12126 29.0932C6.54764 29.7105 7.22782 30.0808 7.81772 30.8205M1.97411 20.8612C2.66111 21.7895 3.04731 22.3806 3.2578 23.0052L4.86314 7.93493L5.26251 8.85172C5.26216 8.85187 5.26181 8.85202 5.26147 8.85217C4.78721 9.05878 4.31009 9.28428 4.18926 9.35141L4.18487 9.35382C3.61637 9.66591 3.41242 9.94234 3.31584 10.2171C3.28381 10.3102 3.28133 10.3278 3.27697 10.3754C3.26832 10.4698 3.26584 10.6237 3.26827 10.9952H3.26829V11.0017C3.26829 11.4201 3.30321 11.9436 3.33882 12.2192C3.47608 13.2018 3.54791 13.9939 3.3213 14.7971C3.10002 15.5813 2.62003 16.2792 1.96219 17.1624C1.38354 17.94 1.13809 18.3821 1.04514 18.697C0.974509 18.9364 0.977984 19.1421 1.11937 19.5191L1.12035 19.5217C1.20077 19.738 1.39412 20.0737 1.97411 20.8612ZM20.8029 36.0806C20.803 36.0805 20.8031 36.0804 20.8032 36.0803C20.8034 36.0802 20.8035 36.0801 20.8037 36.08L21.4001 36.8826L20.8029 36.0806Z" fill="#F0A8B4" stroke="#482712" stroke-width="2"/>
<path d="M7.82496 38.9543C7.76892 39.1655 7.7094 39.3898 7.64748 39.6233C7.60654 39.7776 7.56456 39.9359 7.52182 40.097C7.11933 41.6141 6.51993 43.8722 6.18732 45.1173C5.8552 46.3605 5.18133 48.8951 4.68986 50.747C4.2406 52.4398 3.70526 54.4517 3.43765 55.455C3.71819 55.3449 4.01419 55.2285 4.28828 55.1208C4.53571 55.0235 4.76528 54.9333 4.9495 54.861C5.18836 54.7672 5.50602 54.642 5.83689 54.5115C6.25929 54.345 6.70321 54.1699 7.03216 54.0411C7.51619 53.8503 7.83814 53.724 8.04242 53.6631C8.12692 53.6379 8.32988 53.5779 8.56316 53.5968C8.70738 53.6084 8.86251 53.649 9.0125 53.7335C9.15199 53.8122 9.242 53.9044 9.28113 53.9464L9.28105 53.9465C9.32092 53.9896 9.36309 54.0415 9.37778 54.0596C9.37943 54.0616 9.38072 54.0632 9.38164 54.0644C9.41695 54.1075 9.46488 54.1667 9.52319 54.2391C9.64016 54.3843 9.80342 54.588 10.0006 54.835C10.3953 55.3291 10.9284 55.9991 11.5046 56.7254L11.5059 56.7269C11.8297 57.1368 12.1385 57.5259 12.4152 57.8731C12.6632 56.9372 13.1095 55.2584 13.6462 53.2396C13.9963 51.9225 14.3849 50.4607 14.782 48.966L14.7823 48.9651C15.4024 46.64 15.9651 44.5234 16.3728 42.986C16.5322 42.385 16.6678 41.8726 16.7739 41.471C16.1556 41.2568 15.5734 40.8664 14.6541 40.1801L14.6541 40.1801L14.6498 40.1768C13.8615 39.5816 13.4503 39.3591 13.1807 39.2717C13.1051 39.2486 12.8814 39.2125 12.4616 39.2136C12.0621 39.2147 11.5543 39.2485 10.9593 39.3205C9.62182 39.4836 8.68595 39.4668 7.82496 38.9543Z" fill="#F0A8B4" stroke="#482712" stroke-width="2"/>
<path d="M21.2361 41.4974C21.4232 41.4328 21.613 41.3496 21.8178 41.2394C22.2417 41.0112 22.7192 40.6717 23.3664 40.1872M21.2361 41.4974L25.3144 38.2264M21.2361 41.4974L21.8407 43.7809L21.2361 41.4974ZM23.3664 40.1872L22.7685 39.3887L23.3662 40.1873C23.3662 40.1873 23.3663 40.1873 23.3664 40.1872ZM23.3664 40.1872C23.993 39.7183 24.3277 39.5004 24.5869 39.3822C24.8004 39.2849 24.9878 39.2433 25.3564 39.2256M25.3564 39.2256C25.3547 39.2256 25.353 39.2257 25.3513 39.2257L25.3144 38.2264M25.3564 39.2256C25.3582 39.2255 25.3599 39.2254 25.3617 39.2253L25.3144 38.2264M25.3564 39.2256C25.6706 39.2142 26.003 39.2284 26.5497 39.2946L26.5531 39.2951C27.7851 39.4399 28.3247 39.478 28.9299 39.3907M25.3144 38.2264C25.6977 38.2123 26.0856 38.2311 26.6699 38.3019C27.9132 38.4481 28.3292 38.467 28.7873 38.4009C29.2189 38.3399 29.581 38.1924 29.8926 37.9459C29.9633 38.2088 30.0544 38.549 30.1664 38.9684M28.9299 39.3907C28.9291 39.3908 28.9282 39.391 28.9273 39.3911L28.7873 38.4011L28.9299 39.3907ZM28.9299 39.3907C29.3922 39.325 29.8028 39.1834 30.1664 38.9684M30.1664 38.9684C30.4813 38.7821 30.7609 38.5407 31.0083 38.2457C31.3551 39.5417 31.9737 41.8677 32.8864 45.3107C33.0675 45.9947 33.2834 46.8077 33.4986 47.618C33.8057 48.7742 34.1114 49.9249 34.312 50.6875C35.0428 53.4344 35.4656 55.0272 35.7053 55.9402C35.5128 55.8657 35.2762 55.7736 34.9953 55.6637C34.8581 55.61 34.7105 55.5522 34.5526 55.4903M30.1664 38.9684C30.1941 39.0721 30.223 39.1807 30.2533 39.2942C30.6183 40.6624 31.1696 42.737 31.9197 45.5665M31.9197 45.5665L32.8854 45.311L31.9198 45.5669C31.9198 45.5668 31.9197 45.5666 31.9197 45.5665ZM31.9197 45.5665C32.1013 46.2527 32.3175 47.0665 32.5327 47.8769C32.8395 49.0319 33.1445 50.1799 33.3449 50.9419L33.3456 50.9446C33.916 53.0886 34.2985 54.5283 34.5526 55.4903M34.5526 55.4903C34.6318 55.7899 34.6985 56.0431 34.7546 56.2568C34.7984 56.424 34.8356 56.5663 34.8669 56.6872C33.9691 56.3368 32.5383 55.7729 30.5774 54.9984M34.5526 55.4903C33.6722 55.1449 32.4701 54.6708 30.9469 54.0692M35.9994 57.1162L35.2891 56.4123C35.4486 56.2513 35.6208 56.1859 35.7102 56.159C35.727 56.1539 35.7434 56.1494 35.7592 56.1455C35.9636 56.9267 36.006 57.1073 35.9994 57.1162ZM35.9994 57.1162C35.9936 57.122 35.6812 57.0041 35.0636 56.7638C35.0912 56.6908 35.133 56.6054 35.1968 56.5196L35.9994 57.1162ZM30.9469 54.0692C30.9477 54.0695 30.9484 54.0698 30.9492 54.0701L30.5774 54.9984M30.9469 54.0692C30.9462 54.0689 30.9455 54.0686 30.9448 54.0684L30.5774 54.9984M30.9469 54.0692C30.6444 53.9481 30.3601 53.8404 30.1433 53.7643C30.0372 53.727 29.9338 53.6925 29.8477 53.6678C29.8089 53.6567 29.7473 53.6398 29.6806 53.6278C29.6525 53.6227 29.5809 53.6103 29.4917 53.6096C29.4493 53.6092 29.3587 53.6107 29.2482 53.6367C29.164 53.6565 28.9173 53.7243 28.7148 53.9612M30.5774 54.9984C29.9885 54.7626 29.493 54.5881 29.4743 54.6117M29.4743 54.6117L28.7641 53.9078C28.7445 53.9275 28.7299 53.9439 28.7264 53.948L28.7148 53.9612M29.4743 54.6117C29.4557 54.6306 28.4788 55.8663 27.3009 57.3567C26.7116 58.1042 26.2547 58.6778 25.9153 59.0965C25.8325 58.7916 25.7231 58.3861 25.5929 57.9015M29.4743 54.6117L28.6907 53.9904C28.6987 53.9804 28.7067 53.9707 28.7148 53.9612M28.7148 53.9612L28.7128 53.9635L28.6997 53.9791L28.6829 53.9996L28.643 54.0493C28.6111 54.0892 28.5659 54.1459 28.5094 54.217C28.3962 54.3595 28.2351 54.5629 28.0382 54.8118C27.6441 55.3097 27.1052 55.9915 26.5163 56.7367L26.5156 56.7376C26.1598 57.1889 25.8534 57.5753 25.5929 57.9015M25.5929 57.9015C25.3012 58.2667 25.067 58.5564 24.885 58.7772C24.8608 58.8066 24.8377 58.8346 24.8156 58.8612C24.5041 57.7067 23.9907 55.7867 23.4214 53.6354C22.822 51.3702 22.1225 48.7375 21.5757 46.6794C21.2868 45.592 21.0405 44.6649 20.8741 44.0372L21.8407 43.7813C22.0069 44.4081 22.253 45.3344 22.5418 46.4213C23.0887 48.4798 23.7887 51.1142 24.3881 53.3795C24.8459 55.1094 25.2674 56.6895 25.5768 57.8414C25.5822 57.8616 25.5876 57.8816 25.5929 57.9015ZM25.1591 59.9823C25.2331 59.919 25.436 59.6844 25.7906 59.2498C25.7289 59.1952 25.658 59.1462 25.5776 59.1059C25.3761 59.0047 25.186 58.9935 25.0602 59.0025C24.9863 59.0078 24.92 59.021 24.8631 59.037C25.0245 59.6339 25.121 59.9849 25.1275 59.998C25.1301 60.0033 25.1405 59.9982 25.1591 59.9823Z" fill="#F0A8B4" stroke="#482712" stroke-width="2"/>
</svg>
