<svg width="62" height="43" viewBox="0 0 62 43" fill="none" xmlns="http://www.w3.org/2000/svg">
<path d="M13.0371 0.827229L13.0341 0.827646C10.4298 1.17916 7.99643 2.92068 6.73336 5.36769L6.73324 5.36793C5.31789 8.10761 5.42439 11.3566 7.01507 14.0071L7.01537 14.0076C8.13506 15.8766 10.0641 17.3211 12.1537 17.8648C13.2836 18.1577 14.8069 18.1932 15.8865 17.9659C17.2236 17.678 18.4971 17.0756 19.489 16.2709C19.4989 16.2627 19.5078 16.2552 19.5158 16.2483C19.8852 13.8567 20.8461 11.8194 22.4669 9.97259C22.7247 9.67834 22.7312 9.6455 22.7335 9.63403C22.7336 9.63338 22.7337 9.63279 22.7339 9.63224C22.7376 9.61815 22.7471 9.57204 22.7464 9.44116C22.7456 9.30774 22.7353 9.13232 22.718 8.86463C22.512 5.75556 20.7347 3.03267 18.0169 1.64751L18.0164 1.64729C16.8428 1.04816 15.787 0.78721 14.4177 0.755083C14.2002 0.750315 13.9862 0.749132 13.8179 0.750317C13.7336 0.75091 13.663 0.752085 13.6106 0.753582C13.5704 0.754728 13.5518 0.755814 13.5478 0.755947C13.4965 0.76272 13.3956 0.77692 13.2773 0.793556C13.2015 0.804214 13.1187 0.815874 13.0371 0.827229Z" fill="#F0A8B4" stroke="#482712" stroke-width="1.5"/>
<path d="M47.1679 0.757418C47.1681 0.757395 47.1685 0.757362 47.169 0.757322C47.1756 0.756765 47.2005 0.754665 47.2507 0.753006C47.3093 0.751068 47.3847 0.750229 47.4745 0.750666C47.6538 0.751535 47.8747 0.757389 48.1031 0.767006C48.576 0.786913 49.017 0.820345 49.1857 0.84853C51.2173 1.1992 53.05 2.2633 54.3431 3.84675C57.1425 7.27969 56.9706 12.255 53.948 15.46C52.5672 16.92 50.8737 17.7963 48.9222 18.0599C48.1267 18.1634 46.9071 18.1244 46.1903 17.9712C45.4465 17.811 44.7843 17.5793 44.1491 17.2666C43.5872 16.984 42.8145 16.481 42.5602 16.2524C42.5489 16.1983 42.5359 16.1239 42.5165 16.0076C42.2716 14.4779 41.6568 12.8955 40.8076 11.5503L40.805 11.5461L40.805 11.5461C40.4508 10.993 40.1115 10.5523 39.5797 9.94788C39.4874 9.84248 39.426 9.77123 39.382 9.71689C39.3672 9.6986 39.3562 9.68439 39.3481 9.67363C39.3475 9.668 39.3469 9.6616 39.3462 9.65436L47.1679 0.757418ZM47.1679 0.757418L47.1679 0.757463L47.1546 0.759163C47.1091 0.764961 47.0002 0.780287 46.8704 0.798546C46.7946 0.8092 46.7118 0.820854 46.6303 0.832203L46.627 0.832649C44.9606 1.05711 43.2468 1.90396 41.9457 3.16837L47.1679 0.757418ZM39.4918 7.7618C39.8178 6.0611 40.7326 4.34829 41.9455 3.16855L39.4918 7.7618ZM39.4918 7.7618C39.4427 8.03323 39.3971 8.42728 39.3687 8.80866C39.3391 9.20524 39.3334 9.52069 39.3461 9.65402L39.4918 7.7618Z" fill="#F0A8B4" stroke="#482712" stroke-width="1.5"/>
<path d="M22.7753 15.8722L22.7751 15.8727C21.4794 21.0004 24.9723 26.1001 30.1312 26.6763C34.6648 27.1825 38.8715 23.7949 39.439 19.114C39.6492 17.3642 39.3686 15.7022 38.5821 14.1191L38.5812 14.1171C37.3041 11.5277 34.8918 9.7789 32.1057 9.40684C31.4709 9.32613 30.4693 9.32668 29.8505 9.41105C26.4725 9.88211 23.6375 12.4512 22.7753 15.8722Z" fill="#F0A8B4" stroke="#482712" stroke-width="1.5"/>
<path d="M44.1722 20.7347C43.7201 20.5842 43.0806 20.3037 42.5244 20.0247C42.3278 21.1885 41.9473 22.3584 41.4272 23.4076L41.4272 23.4076L41.4253 23.4114C40.9956 24.2661 40.5477 24.9519 39.884 25.7603C40.1741 25.9967 40.4898 26.2808 40.786 26.5624C41.343 27.092 41.925 27.7037 42.2694 28.1605L42.2695 28.1606C43.5315 29.8352 44.4773 31.8303 45.1892 34.2698C45.1893 34.2701 45.1894 34.2704 45.1895 34.2708L45.195 34.2896H53.317H61.2416C61.2172 33.6173 61.1418 32.5548 61.0559 31.7854L61.0557 31.7834C60.6363 27.935 59.5335 24.2276 58.2072 22.0563L58.207 22.056C57.3943 20.724 56.317 19.5334 55.1824 18.6898C53.9987 19.6696 52.5562 20.4454 51.113 20.8717L51.1119 20.872C48.8112 21.5477 46.4408 21.5062 44.1722 20.7347ZM39.4645 26.2591C39.4646 26.259 39.4666 26.2565 39.4698 26.2518C39.4659 26.2568 39.4643 26.2592 39.4645 26.2591Z" fill="#F0A8B4" stroke="#482712" stroke-width="1.5"/>
<path d="M19.493 20.0231C19.8523 22.1387 20.7859 24.1764 22.1458 25.7848C19.6264 27.74 17.9732 30.3869 16.8506 34.132L16.8501 34.1335L16.8108 34.2658L8.6868 34.2797L8.68637 34.2797L0.778034 34.2887L0.783379 34.1429C0.783384 34.1427 0.783389 34.1426 0.783395 34.1425C0.940514 29.9245 1.91314 25.6753 3.30112 22.9729C3.60518 22.3847 4.125 21.5593 4.55831 20.9756L19.493 20.0231ZM19.493 20.0231C18.9361 20.3027 18.295 20.5839 17.8421 20.7347C14.4498 21.8867 10.779 21.3996 7.80615 19.4065C7.5026 19.2045 7.09894 18.9122 6.85707 18.7155C6.07332 19.2968 5.08647 20.2653 4.55858 20.9753L19.493 20.0231Z" fill="#F0A8B4" stroke="#482712" stroke-width="1.5"/>
<path d="M19.9465 31.6777C20.2515 31.0596 20.8811 30.0312 21.2152 29.606C21.7431 28.9287 22.2709 28.3551 22.7358 27.9448L23.2321 28.507C23.2318 28.5073 23.2316 28.5075 23.2313 28.5078M19.9465 31.6777L23.2313 28.5078M19.9465 31.6777C18.9295 33.7246 18.1208 36.6911 17.714 39.895L19.9465 31.6777ZM23.2313 28.5078C23.4549 28.3115 23.7594 28.0683 24.0306 27.8656C24.1003 27.8135 24.1662 27.7652 24.2267 27.7219L24.2299 27.7243L24.2299 27.7243C25.4378 28.6082 26.9192 29.2939 28.3644 29.6338C30.4357 30.1265 32.7304 30.0101 34.7429 29.3163L34.7433 29.3162C35.7682 28.9623 37.0008 28.3133 37.8281 27.6884C37.8304 27.6901 37.8328 27.6917 37.8352 27.6934L37.8366 27.6944C39.4516 28.8226 40.7554 30.4874 41.688 32.6651L41.688 32.6652C42.809 35.2818 43.604 38.9492 43.7518 42.25H31.0167H18.2622C18.2981 41.6219 18.3875 40.5625 18.4582 39.9881C18.8584 36.8373 19.6503 33.9594 20.6181 32.0114L20.619 32.0097C20.9072 31.4259 21.5104 30.4443 21.8049 30.0694L21.8068 30.067C22.3143 29.4158 22.8104 28.8794 23.2313 28.5078Z" fill="#F0A8B4" stroke="#482712" stroke-width="1.5"/>
</svg>
