<svg width="32" height="53" viewBox="0 0 32 53" fill="none" xmlns="http://www.w3.org/2000/svg">
<path d="M31 44.5C31 46.2961 29.6126 48.1567 26.8446 49.6273C24.1204 51.0745 20.288 52 16 52C11.712 52 7.87964 51.0745 5.15545 49.6273C2.38735 48.1567 1 46.2961 1 44.5C1 42.7039 2.38735 40.8433 5.15545 39.3727C7.87964 37.9255 11.712 37 16 37C20.288 37 24.1204 37.9255 26.8446 39.3727C29.6126 40.8433 31 42.7039 31 44.5Z" fill="#F0A8B4" stroke="#482712" stroke-width="2"/>
<path d="M16.5037 43.2504C16.5037 43.2504 16.5037 43.2503 16.5037 43.2503L16.5037 43.2504ZM16.5037 43.2504C16.5042 43.251 16.5048 43.2517 16.5053 43.2523L16.5037 43.2504ZM15.9269 42.5012L15.9265 42.5007C15.6248 42.1093 11.8625 37.2029 8.18009 31.3937C6.33815 28.4879 4.52889 25.376 3.18351 22.5025C1.82097 19.5923 1 17.0606 1 15.27C1 7.44618 7.68501 1 15.9993 1C24.3139 1 31 7.44628 31 15.27C31 17.0606 30.179 19.5923 28.8165 22.5025C27.4712 25.376 25.662 28.4879 23.82 31.3937C20.1377 37.2029 16.3754 42.1093 16.0736 42.5005L16.0729 42.5014L16 42.5962L15.9269 42.5012ZM22.7307 15.27C22.7307 11.6576 19.668 8.80029 15.9993 8.80029C12.3325 8.80029 9.26792 11.6574 9.26792 15.27C9.26792 18.8808 12.3325 21.7396 15.9993 21.7396C19.6681 21.7396 22.7307 18.8806 22.7307 15.27Z" fill="#F0A8B4" stroke="#482712" stroke-width="2"/>
</svg>
