<svg width="72" height="73" viewBox="0 0 72 73" fill="none" xmlns="http://www.w3.org/2000/svg">
<path d="M36.0149 62.7672C36.6457 63.7344 36.6458 63.7343 36.646 63.7342L36.6465 63.7339L36.6485 63.7326L36.6556 63.728L36.6828 63.7102L36.7871 63.6416C36.8781 63.5816 37.0112 63.4936 37.1812 63.3804C37.521 63.1539 38.0081 62.8266 38.5996 62.4217C39.7816 61.6124 41.3839 60.4905 43.0612 59.2426C44.736 57.9967 46.4991 56.6149 47.9972 55.2864C49.4655 53.9845 50.7828 52.6449 51.4627 51.485L51.4627 51.485C52.6951 49.3824 53.6035 47.005 53.4548 43.8745L53.4548 43.8742C53.1928 38.3853 49.1578 33.5785 43.8944 33.5785C41.3697 33.5785 39.1743 34.6278 37.659 35.6136C36.988 36.0502 36.4319 36.4862 36.0175 36.8396C35.6165 36.4857 35.079 36.0523 34.4241 35.6187C32.9199 34.6228 30.7244 33.5785 28.1062 33.5785C22.8428 33.5785 18.8078 38.3853 18.5459 43.8742L18.5459 43.8743C18.3969 47.0046 19.3074 49.3913 20.5378 51.4859C21.2144 52.6379 22.5326 53.9735 24.002 55.2731C25.502 56.5996 27.2691 57.9823 28.9484 59.2302C30.6302 60.4801 32.2375 61.605 33.4235 62.4169C34.0168 62.8231 34.5056 63.1516 34.8466 63.3789C35.0171 63.4925 35.1507 63.5809 35.2421 63.6411L35.3467 63.7099L35.374 63.7278L35.3811 63.7324L35.383 63.7337L35.3836 63.7341C35.3837 63.7342 35.3839 63.7342 36.0149 62.7672ZM36.0149 62.7672L36.6457 63.7344L36.0147 64.1459L35.3839 63.7342L36.0149 62.7672ZM59.0769 32.5779V33.0853L59.4505 33.4285L69.0354 42.2308H60.2316H59.0769V43.3855V71.8452H12.3515V43.3855V42.2308H11.1968H2.93998L35.9417 11.5769L49.8435 24.5192L51.7852 26.3267V23.674V19.7468H59.0769V32.5779Z" fill="#F0A8B4" stroke="#482712" stroke-width="2.30952"/>
<path d="M62.5011 7.1201L62.5012 7.12C62.9821 6.29244 63.2972 5.43539 63.2434 4.29983L63.2434 4.29971C63.1469 2.25228 61.6913 0.750595 60.1287 0.750595C59.3172 0.750595 58.5552 1.09643 57.9636 1.48469C57.6735 1.6751 57.4393 1.866 57.2789 2.0082C57.199 2.079 57.1384 2.13688 57.0992 2.17545C57.0797 2.19471 57.0655 2.20907 57.0571 2.21773L57.0492 2.226L57.0489 2.22628L57.0489 2.22632L57.0485 2.22674L57.0481 2.22717L57.0481 2.22719L56.4836 2.83385L55.9374 2.21123C55.9376 2.21146 55.9374 2.21128 55.9369 2.21073L55.9368 2.2106L55.9298 2.20289C55.9223 2.19473 55.9094 2.18088 55.8913 2.16214C55.8551 2.12462 55.7983 2.06784 55.7228 1.99816C55.5711 1.85821 55.3474 1.66965 55.0654 1.48133C54.4942 1.09974 53.7321 0.750595 52.8712 0.750595C51.309 0.750595 49.8534 2.25217 49.7565 4.29965L62.5011 7.1201ZM62.5011 7.1201C62.2997 7.46672 61.8318 7.97205 61.1624 8.5709C60.5122 9.15259 59.734 9.76876 58.9786 10.3357C58.225 10.9013 57.5029 11.4114 56.9687 11.7804C56.7921 11.9023 56.6364 12.0086 56.5071 12.0963C56.3769 12.0081 56.2201 11.9009 56.0422 11.7781C55.506 11.4078 54.7814 10.8962 54.0255 10.3295C53.2679 9.76147 52.4875 9.14466 51.8361 8.56352C51.1652 7.96491 50.6978 7.46177 50.4984 7.11947L62.5011 7.1201ZM50.4984 7.11943C50.0193 6.29647 49.703 5.43562 49.7565 4.29981L50.4984 7.11943Z" fill="#F0A8B4" stroke="#482712" stroke-width="1.50119"/>
</svg>
