<svg width="44" height="70" viewBox="0 0 44 70" fill="none" xmlns="http://www.w3.org/2000/svg">
<path d="M11.2216 4.2606L11.2262 4.25513C11.4297 4.00846 11.6183 3.88697 11.9318 3.81694C12.313 3.73181 12.9011 3.72058 13.9066 3.83857C13.9074 3.83867 13.9082 3.83876 13.9091 3.83886L14.0438 2.69199C14.5798 2.75694 15.2619 2.8219 15.5596 2.83814L11.2216 4.2606ZM11.2216 4.2606C10.981 4.5486 10.8038 4.83718 10.2454 6.11118L10.2447 6.11269M11.2216 4.2606L10.2447 6.11269M10.2447 6.11269C9.64224 7.48185 9.28035 8.14279 8.61586 8.77769L8.61044 8.78287M10.2447 6.11269L8.61044 8.78287M8.61044 8.78287L8.60496 8.78797M8.61044 8.78287L8.60496 8.78797M8.60496 8.78797C7.98101 9.36884 7.38724 9.68678 6.08991 10.2475M8.60496 8.78797L6.08991 10.2475M2.62644 12.7389C2.62102 11.9106 2.63185 11.7807 2.74554 11.4505C2.97832 10.7847 3.46014 10.2704 4.28843 9.81574L2.62644 12.7389ZM2.62644 12.7389C2.62644 13.2694 2.66975 13.9298 2.71847 14.3033L2.62644 12.7389ZM6.08991 10.2475C5.54113 10.4866 4.98916 10.7474 4.8492 10.8252L4.84413 10.828C4.1854 11.1896 3.94858 11.5102 3.83643 11.8293C3.7993 11.9373 3.79635 11.9579 3.79127 12.0133C3.78123 12.1228 3.77836 12.3012 3.78117 12.7313H3.7812V12.7389C3.7812 13.2234 3.82164 13.8298 3.86289 14.149C4.02183 15.2868 4.10489 16.2034 3.8427 17.1326C3.58666 18.0401 3.03124 18.8477 2.2695 19.8704C1.59947 20.7708 1.31496 21.283 1.20716 21.6483C1.12513 21.9263 1.1293 22.1652 1.29318 22.6022L1.29432 22.6052C1.3876 22.8561 1.61175 23.2452 2.28335 24.157C3.07879 25.2319 3.52568 25.9159 3.76923 26.6386L6.08991 10.2475ZM9.71088 36.7947C9.94371 37.2481 10.203 37.7982 10.4518 38.3685L3.76953 26.6395C3.84578 26.8653 3.91472 27.0852 3.94979 27.3693C3.98047 27.6177 3.9815 27.8917 3.9815 28.2206C3.9815 28.7093 3.92248 29.4999 3.85401 30.0647L3.85399 30.0649C3.73224 31.0679 3.73257 31.6487 3.80612 32.0283C3.86638 32.3392 3.97569 32.5236 4.20077 32.7317L4.20093 32.7319C4.48159 32.9915 4.803 33.1989 5.92849 33.6896C7.58011 34.4044 8.36704 34.8329 9.04955 35.6887C9.25823 35.9484 9.49671 36.3776 9.71088 36.7947Z" fill="#F0A8B4" stroke="#482712" stroke-width="2.30952"/>
<path d="M8.89487 45.2543C9.91735 45.8745 11.0247 45.8992 12.6333 45.7053L8.89487 45.2543ZM8.89487 45.2543C8.82502 45.5145 8.75052 45.7922 8.67282 46.0817C8.62455 46.2616 8.57504 46.4461 8.52466 46.6339C8.0467 48.4148 7.33493 51.0657 6.93995 52.5273C6.54556 53.9867 5.74534 56.9621 5.16172 59.136C4.62193 61.1467 3.97753 63.5407 3.66362 64.704C4.01431 64.5679 4.38862 64.4225 4.73366 64.2884C5.02743 64.1742 5.29998 64.0683 5.51868 63.9834C5.80248 63.8733 6.1797 63.7263 6.57255 63.5731C7.07406 63.3777 7.60107 63.1723 7.99177 63.021C8.5676 62.7966 8.9478 62.6492 9.1882 62.5784C9.28838 62.5488 9.52228 62.4808 9.79005 62.5022C9.95528 62.5154 10.1335 62.5613 10.3063 62.6576C10.4675 62.7475 10.5719 62.8531 10.6178 62.9018L10.6178 62.9019C10.6643 62.9516 10.7137 63.0118 10.7315 63.0334C10.7335 63.0358 10.7351 63.0378 10.7362 63.0392C10.7781 63.0898 10.835 63.1592 10.9042 63.2442C11.0431 63.4145 11.2369 63.6537 11.4711 63.9436C11.9397 64.5236 12.5728 65.3102 13.2571 66.1627L13.2585 66.1645C13.661 66.6681 14.0439 67.1449 14.384 67.5667C14.6748 66.4814 15.2125 64.4818 15.8617 62.0679C16.2776 60.5212 16.7393 58.8043 17.2112 57.0488L17.2114 57.0478C17.9478 54.3182 18.6161 51.8336 19.1002 50.0287C19.291 49.3175 19.4531 48.7121 19.5795 48.2389C18.8442 47.9914 18.1539 47.5352 17.0514 46.7216L17.0514 46.7216L17.0464 46.7178C16.1099 46.0188 15.6175 45.7544 15.2904 45.6496C15.1944 45.6205 14.9231 45.5781 14.4231 45.5794C13.9464 45.5807 13.3415 45.6206 12.6336 45.7053L8.89487 45.2543Z" fill="#F0A8B4" stroke="#482712" stroke-width="2.30952"/>
<path d="M24.4324 48.2699C24.6593 48.1937 24.8893 48.0949 25.1382 47.9625C25.6389 47.696 26.2039 47.299 26.9726 46.7301L24.4324 48.2699ZM24.4324 48.2699L25.1533 50.9619C25.1533 50.9621 25.1534 50.9622 25.1534 50.9623C25.3507 51.6981 25.643 52.7856 25.9859 54.0614C26.6354 56.478 27.4665 59.5705 28.1784 62.2299C28.722 64.2606 29.2226 66.1155 29.5899 67.4677C29.602 67.5123 29.614 67.5563 29.6258 67.5997C29.9448 67.2051 30.3236 66.733 30.767 66.177L30.7679 66.1759C31.4672 65.3012 32.1071 64.5008 32.575 63.9163C32.8089 63.6242 33.0002 63.3854 33.1346 63.2181C33.2017 63.1347 33.2553 63.0681 33.2932 63.0213L33.3405 62.9631L33.3603 62.9392L33.3756 62.9212C33.3778 62.9186 33.3811 62.9148 33.3852 62.9101C33.6188 62.6452 33.8986 62.5699 33.9926 62.548C34.1189 62.5186 34.2225 62.517 34.2711 62.5174C34.373 62.5182 34.4551 62.5322 34.4876 62.538C34.5646 62.5517 34.6361 62.5711 34.6817 62.584C34.7828 62.6127 34.9047 62.6528 35.0305 62.6965C35.2872 62.7856 35.6243 62.9119 35.9833 63.0539C37.8266 63.7737 39.274 64.3379 40.3247 64.7453C40.023 63.6161 39.566 61.9155 38.8804 59.3681L38.8796 59.3649C38.6416 58.4706 38.2796 57.1235 37.9155 55.7681C37.6598 54.8165 37.403 53.8609 37.1873 53.0551C36.2965 49.7332 35.6417 47.2977 35.2083 45.6915C35.1686 45.5444 35.1308 45.4043 35.0948 45.2711C34.6557 45.5362 34.1581 45.7093 33.5963 45.788C32.8849 45.8892 32.2496 45.8454 30.7872 45.6754L30.7833 45.6749C30.1323 45.597 29.7351 45.5801 29.3589 45.5935C28.9172 45.6145 28.6887 45.6641 28.4288 45.7812C28.1169 45.9217 27.7167 46.1797 26.9728 46.73L24.4324 48.2699Z" fill="#F0A8B4" stroke="#482712" stroke-width="2.30952"/>
</svg>
