<svg width="72" height="49" viewBox="0 0 72 49" fill="none" xmlns="http://www.w3.org/2000/svg">
<path d="M16.7163 0.00600052C16.2052 -0.0050087 15.7106 0.000495911 15.6172 0.0115051C15.5604 0.0186176 15.4255 0.03722 15.272 0.058403C15.1879 0.0700054 15.0982 0.0823803 15.0127 0.0940666C11.7702 0.523388 8.77497 2.63697 7.21967 5.59269M16.7163 0.00600052C18.3925 0.044529 19.717 0.363768 21.1679 1.09031C24.5258 2.76907 26.7131 6.06605 26.9659 9.81436C27.0429 10.9812 27.0319 11.0253 26.4713 11.6527M16.7163 0.00600052L16.6964 0.871843C16.6968 0.871851 16.6972 0.871861 16.6976 0.871868M16.7163 0.00600052L16.6977 0.871872C16.6976 0.871872 16.6976 0.871868 16.6976 0.871868M26.4713 11.6527C24.7182 13.6122 23.696 15.7588 23.3113 18.2962M26.4713 11.6527L25.8254 11.0757C25.8255 11.0756 25.8256 11.0755 25.8257 11.0754C23.9864 13.1312 22.8927 15.4013 22.4704 18.0666C22.4638 18.0721 22.4566 18.078 22.4489 18.0843C21.3254 18.9784 19.8814 19.6488 18.3639 19.9693M26.4713 11.6527L25.8259 11.0753M23.3113 18.2962C23.2783 18.4944 23.2288 18.5659 22.9925 18.7586M23.3113 18.2962L22.5191 18.1644L22.455 18.1664L22.5175 18.1759L22.9925 18.7586M23.3113 18.2962L22.5297 18.1777L22.9925 18.7586M22.9925 18.7586C21.756 19.7438 20.1842 20.4704 18.5409 20.8171M18.5409 20.8171C17.1835 21.0978 15.3204 21.0538 13.9135 20.696C11.325 20.0355 8.95083 18.2907 7.5659 16.023C5.60941 12.8251 5.47751 8.90067 7.21967 5.59269M18.5409 20.8171L18.3621 19.9697C18.3627 19.9696 18.3633 19.9695 18.3639 19.9693M18.5409 20.8171L18.3655 19.969C18.365 19.9691 18.3644 19.9692 18.3639 19.9693M7.21967 5.59269L7.21969 5.5927L7.21967 5.59269ZM18.3639 19.9693L25.8259 11.0753M18.3639 19.9693C17.1385 20.2224 15.4095 20.1828 14.1271 19.8567L18.3639 19.9693ZM25.8259 11.0753C26.128 10.7371 26.1217 10.713 26.1213 10.7113C26.1213 10.7112 26.1213 10.7112 26.1213 10.7112C26.124 10.7011 26.1347 10.6544 26.1339 10.5107C26.133 10.3639 26.1215 10.1704 26.1018 9.87243C25.8695 6.42943 23.8626 3.40581 20.7806 1.86497L20.7801 1.86472C19.4494 1.19835 18.2516 0.907715 16.6976 0.871868M25.8259 11.0753L14.1269 19.8567C11.7554 19.2513 9.57094 17.6444 8.30503 15.5716L8.30468 15.571C6.50671 12.6322 6.38677 9.0328 7.98597 5.99626L7.98611 5.99599C9.41388 3.28263 12.1694 1.34416 15.1263 0.952644L15.1299 0.952179C15.2223 0.939541 15.3164 0.926563 15.4024 0.9147C15.5366 0.896173 15.6512 0.880362 15.7095 0.872822C15.7139 0.872677 15.7351 0.871466 15.7807 0.870184C15.8402 0.868515 15.9204 0.867208 16.0161 0.866547C16.2072 0.865227 16.4504 0.866545 16.6976 0.871868M22.4561 18.1591C22.4586 18.1427 22.4611 18.1262 22.4637 18.1098L22.4561 18.1591ZM22.4561 18.1591C22.4548 18.1662 22.4541 18.1693 22.4542 18.1691L22.4561 18.1591ZM22.4582 18.1543L22.5064 18.1623L22.471 18.1189C22.4675 18.1274 22.4645 18.1353 22.4621 18.1425C22.4605 18.1469 22.4593 18.1508 22.4582 18.1543Z" fill="#F0A8B4" stroke="#482712" stroke-width="1.73214"/>
<path d="M54.7324 1.87473L54.7399 1.87366C54.7344 1.87445 54.76 1.87121 54.8342 1.8688C54.9008 1.86664 54.9866 1.86571 55.0886 1.8662C55.2921 1.86716 55.543 1.87368 55.8024 1.88439C56.3392 1.90654 56.8402 1.94375 57.0318 1.97514C59.3396 2.36559 61.4178 3.54991 62.882 5.30733C66.0483 9.1135 65.8546 14.6254 62.4339 18.1801C60.8697 19.8009 58.9491 20.7761 56.7327 21.0696C55.8292 21.1848 54.4441 21.1415 53.63 20.9708C52.7853 20.7925 52.0336 20.5347 51.3128 20.1869C50.6802 19.875 49.8135 19.3225 49.5191 19.0667C49.5071 19.0086 49.493 18.9293 49.4725 18.8088C49.1933 17.0994 48.4928 15.3329 47.5263 13.8321L47.5232 13.8273L47.5232 13.8273C47.1198 13.2099 46.7336 12.7182 46.1291 12.0447C46.0243 11.9274 45.955 11.8485 45.9054 11.7885C45.8924 11.7728 45.8821 11.7599 45.8739 11.7494C45.8736 11.7466 45.8733 11.7436 45.873 11.7405L54.7324 1.87473ZM54.7324 1.87473L54.7249 1.87567M54.7324 1.87473L54.7249 1.87567M54.7249 1.87567C54.6733 1.88212 54.5497 1.89917 54.4024 1.91948C54.3164 1.93135 54.2222 1.94433 54.1296 1.95697L54.1259 1.95747M54.7249 1.87567L54.1259 1.95747M54.1259 1.95747C52.2329 2.20741 50.2886 3.15004 48.8144 4.55435M54.1259 1.95747L48.8144 4.55435M48.8144 4.55435C47.4405 5.86408 46.4061 7.76409 46.0378 9.64744C45.9825 9.94736 45.9309 10.3841 45.8987 10.8075C45.8651 11.2488 45.859 11.5962 45.873 11.7401L48.8144 4.55435Z" fill="#F0A8B4" stroke="#482712" stroke-width="1.73214"/>
<path d="M26.1749 17.4706L26.1748 17.4711C24.6966 23.4769 28.6865 29.4076 34.5123 30.0756C39.627 30.662 44.4104 26.7366 45.0573 21.2589C45.2966 19.2137 44.9768 17.2714 44.0825 15.4232L44.0814 15.4209C42.6293 12.3978 39.8924 10.3673 36.7448 9.93552C36.0274 9.84182 34.8938 9.84247 34.1946 9.94031C30.3786 10.4867 27.1568 13.471 26.1749 17.4706Z" fill="#F0A8B4" stroke="#482712" stroke-width="1.73214"/>
<path d="M51.2367 23.4573C50.7073 23.2823 49.9566 22.9552 49.3061 22.6307C49.0774 23.9792 48.6336 25.335 48.0266 26.5505L48.0266 26.5505L48.0244 26.5549C47.5241 27.5427 47.0028 28.3353 46.2305 29.2692C46.5679 29.5421 46.9353 29.8702 47.28 30.1957C47.9288 30.8081 48.6066 31.5152 49.0077 32.0434L49.0078 32.0435C50.4778 33.9798 51.5798 36.2871 52.4092 39.1085C52.4093 39.1089 52.4094 39.1093 52.4095 39.1097L52.4167 39.1339H61.8852H71.1244C71.096 38.3568 71.0082 37.1275 70.9081 36.2374L70.9078 36.2352C70.4194 31.7854 69.1349 27.4986 67.5899 24.9879L67.5897 24.9875C66.6412 23.4443 65.3831 22.065 64.0579 21.0885C62.6783 22.2237 60.9963 23.1223 59.3139 23.6155L59.3126 23.6159C56.6352 24.3965 53.8768 24.3486 51.2367 23.4573ZM45.7401 29.848C45.7403 29.8479 45.7426 29.845 45.7464 29.8395C45.7418 29.8454 45.7399 29.8481 45.7401 29.848Z" fill="#F0A8B4" stroke="#482712" stroke-width="1.73214"/>
<path d="M19.6164 38.948L19.6158 38.9497L19.5691 39.1064L10.1092 39.1225L10.1087 39.1225L0.898568 39.1329L0.904916 38.9604C0.904918 38.9603 0.904921 38.9603 0.904923 38.9602C0.904927 38.9601 0.904931 38.96 0.904934 38.9599C1.08778 34.0697 2.21965 29.1432 3.83505 26.0098C4.18903 25.3275 4.79423 24.3702 5.29866 23.6934C5.91445 22.8683 7.06661 21.7422 7.98009 21.0683C8.26074 21.2962 8.73402 21.6378 9.08937 21.8734C9.08982 21.8737 9.09027 21.874 9.09071 21.8743L9.56914 21.1523C12.8039 23.3134 16.7939 23.8408 20.4852 22.5911L19.6164 38.948ZM19.6164 38.948C20.9231 34.605 22.8473 31.5366 25.7792 29.2705C24.1949 27.4043 23.1076 25.0388 22.6903 22.5829C22.0401 22.9085 21.2894 23.2369 20.7601 23.4124L19.6164 38.948Z" fill="#F0A8B4" stroke="#482712" stroke-width="1.73214"/>
<path d="M39.7697 33.8416L39.7693 33.8418C37.4647 34.611 34.8377 34.74 32.4666 34.1939C30.8118 33.8171 29.1139 33.0565 27.7282 32.0746L27.7282 32.0746L27.7241 32.0717C27.7219 32.0701 27.7197 32.0685 27.7175 32.0669C27.6462 32.1162 27.5681 32.1715 27.4854 32.2314C27.1746 32.4564 26.8257 32.7262 26.5696 32.9439C26.088 33.3557 25.52 33.9502 24.9391 34.6721L24.9391 34.6721L24.9369 34.6749C24.6008 35.089 23.9105 36.1766 23.5812 36.8226L23.5802 36.8246C22.4737 38.9811 21.567 42.1699 21.1088 45.6636C21.0292 46.29 20.929 47.4353 20.8866 48.1339H35.5028H50.0972C49.9238 44.4851 49.0154 40.4374 47.7371 37.5481L47.737 37.548C46.6711 35.1378 45.1802 33.2931 43.3297 32.0414L43.3281 32.0403C43.3229 32.0368 43.3177 32.0332 43.3125 32.0297C42.3633 32.7255 40.9463 33.4482 39.7697 33.8416Z" fill="#F0A8B4" stroke="#482712" stroke-width="1.73214"/>
</svg>
