<svg width="37" height="62" viewBox="0 0 37 62" fill="none" xmlns="http://www.w3.org/2000/svg">
<path d="M35.8452 52C35.8452 54.1354 34.2269 56.3285 31.0324 58.0552C27.8839 59.7571 23.4551 60.8452 18.5 60.8452C13.5449 60.8452 9.11613 59.7571 5.96763 58.0552C2.77313 56.3285 1.15476 54.1354 1.15476 52C1.15476 49.8646 2.77313 47.6715 5.96763 45.9448C9.11613 44.2429 13.5449 43.1548 18.5 43.1548C23.4551 43.1548 27.8839 44.2429 31.0324 45.9448C34.2269 47.6715 35.8452 49.8646 35.8452 52Z" fill="#F0A8B4" stroke="#482712" stroke-width="2.30952"/>
<path d="M18.4151 49.2664L18.4147 49.2659C18.0658 48.8122 13.7155 43.1251 9.45766 36.3916C7.32786 33.0234 5.23578 29.4162 3.68004 26.0852C2.10461 22.712 1.15476 19.7764 1.15476 17.6993C1.15476 8.62562 8.88776 1.15476 18.4992 1.15476C28.111 1.15476 35.8452 8.62573 35.8452 17.6993C35.8452 19.7764 34.8954 22.712 33.32 26.0852C31.7643 29.4163 29.6723 33.0234 27.5425 36.3916C23.2847 43.1251 18.9344 48.8122 18.5855 49.2657L18.5847 49.2667L18.5 49.377L18.4151 49.2664ZM19.0838 50.1371L19.0821 50.1348C19.0827 50.1356 19.0833 50.1363 19.0838 50.1371ZM26.2809 17.6993C26.2809 13.5174 22.7431 10.2047 18.4992 10.2047C14.2575 10.2047 10.7175 13.5172 10.7175 17.6993C10.7175 21.8793 14.2574 25.1939 18.4992 25.1939C22.7432 25.1939 26.2809 21.8791 26.2809 17.6993Z" fill="#F0A8B4" stroke="#482712" stroke-width="2.30952"/>
</svg>
