<svg width="24" height="18" viewBox="0 0 24 18" fill="none" xmlns="http://www.w3.org/2000/svg">
<path d="M23.4969 2.9313C23.3613 2.39833 23.0958 1.9124 22.727 1.52212C22.3582 1.13185 21.8989 0.850924 21.3952 0.707468C19.5403 0.17627 12.0867 0.17627 12.0867 0.17627C12.0867 0.17627 4.63304 0.17627 2.77814 0.707468C2.27446 0.850924 1.81522 1.13185 1.44638 1.52212C1.07755 1.9124 0.812059 2.39833 0.676484 2.9313C0.330132 4.93298 0.162057 6.96464 0.174468 8.99956C0.162057 11.0345 0.330132 13.0661 0.676484 15.0678C0.812059 15.6008 1.07755 16.0867 1.44638 16.477C1.81522 16.8673 2.27446 17.1482 2.77814 17.2917C4.63304 17.8229 12.0867 17.8229 12.0867 17.8229C12.0867 17.8229 19.5403 17.8229 21.3952 17.2917C21.8989 17.1482 22.3582 16.8673 22.727 16.477C23.0958 16.0867 23.3613 15.6008 23.4969 15.0678C23.8433 13.0661 24.0113 11.0345 23.9989 8.99956C24.0113 6.96464 23.8433 4.93298 23.4969 2.9313ZM9.70425 12.781V5.21815L15.8901 8.99956L9.70425 12.781Z" fill="#482712"/>
</svg>
